Coordinates
version=1
nRows=13
nColumns=63
inDegrees=yes

Units are S.I. units (second, meters, Newtons, ...)
If the header above contains a line with 'inDegrees', this indicates whether rotational values are in degrees (yes) or radians (no).

endheader
time	pelvis_tilt	pelvis_list	pelvis_rotation	pelvis_tx	pelvis_ty	pelvis_tz	hip_flexion_r	hip_adduction_r	hip_rotation_r	knee_angle_r	knee_angle_r_beta	ankle_angle_r	subtalar_angle_r	mtp_angle_r	hip_flexion_l	hip_adduction_l	hip_rotation_l	knee_angle_l	knee_angle_l_beta	ankle_angle_l	subtalar_angle_l	mtp_angle_l	L5_S1_Flex_Ext	L5_S1_Lat_Bending	L5_S1_axial_rotation	L4_L5_Flex_Ext	L4_L5_Lat_Bending	L4_L5_axial_rotation	L3_L4_Flex_Ext	L3_L4_Lat_Bending	L3_L4_axial_rotation	L2_L3_Flex_Ext	L2_L3_Lat_Bending	L2_L3_axial_rotation	L1_L2_Flex_Ext	L1_L2_Lat_Bending	L1_L2_axial_rotation	L1_T12_Flex_Ext	L1_T12_Lat_Bending	L1_T12_axial_rotation	Abs_r3	Abs_r2	Abs_r1	Abs_t1	Abs_t2	neck_flexion	neck_bending	neck_rotation	arm_flex_r	arm_add_r	arm_rot_r	elbow_flex_r	pro_sup_r	wrist_flex_r	wrist_dev_r	arm_flex_l	arm_add_l	arm_rot_l	elbow_flex_l	pro_sup_l	wrist_flex_l	wrist_dev_l
4.372881	0.392431	-3.937183	89.009503	0.139126	0.630682	0.775703	11.337605	-0.639762	-1.644968	17.386768	0.303456	37.974234	2.161035	0.000000	6.725691	1.949790	-4.007675	7.747965	0.135227	34.622163	2.272874	0.000000	0.181668	-0.074128	0.355912	0.337377	-0.098590	0.378157	0.298463	-0.180234	0.378157	0.207629	-0.180234	0.311423	0.168697	-0.151161	0.289179	0.103805	-0.114824	0.266934	1.297640	-0.838546	1.979476	0.000000	0.000000	20.974025	1.873125	4.126489	11.645498	-8.932436	51.407398	44.978139	24.665921	2.236032	15.023200	17.361256	-5.667661	58.083984	37.378861	80.260372	3.760396	5.189033
4.389831	0.421557	-3.966749	89.028122	0.139279	0.630514	0.775689	11.422245	-0.514193	-1.052320	17.537245	0.306083	37.990862	1.262390	0.000000	6.875047	1.891478	-4.095821	8.013209	0.139857	34.750241	2.305637	0.000000	0.187820	-0.062513	0.301801	0.348800	-0.083142	0.320664	0.308569	-0.151994	0.320664	0.214659	-0.151994	0.264076	0.174410	-0.127476	0.245214	0.107320	-0.096833	0.226351	1.341579	-0.707159	1.678528	0.000000	0.000000	21.230312	2.018028	4.674529	12.557872	-9.392312	52.991595	45.476591	23.764884	2.113595	14.748635	16.630355	-5.643517	57.961755	37.514927	77.455860	3.530193	5.256561
4.406780	0.483213	-4.033976	89.107973	0.139317	0.630275	0.775649	11.509857	-0.385932	-0.668172	17.658114	0.308192	38.055577	0.569606	0.000000	7.085125	1.809547	-4.068824	8.305809	0.144964	34.905116	2.300730	0.000000	0.198535	-0.045560	0.225301	0.368700	-0.060595	0.239383	0.326174	-0.110776	0.239383	0.226906	-0.110776	0.197139	0.184360	-0.092907	0.183057	0.113443	-0.070573	0.168976	1.418118	-0.515389	1.253058	0.000000	0.000000	21.516555	2.115491	5.494489	13.513644	-9.861707	54.647842	45.852305	23.252754	1.944129	14.354523	15.834037	-5.602257	57.692196	37.676178	74.300046	3.289340	5.325041
4.423729	0.544818	-4.097924	89.249236	0.139356	0.630039	0.775619	11.535797	-0.277959	-0.483755	17.697602	0.308881	38.120977	0.082546	0.000000	7.301766	1.728778	-3.963490	8.600856	0.150113	35.055569	2.301147	0.000000	0.206421	-0.032679	0.144873	0.383344	-0.043464	0.153928	0.339128	-0.079457	0.153928	0.235918	-0.079457	0.126764	0.191682	-0.066640	0.117709	0.117949	-0.050620	0.108655	1.474442	-0.369676	0.805741	0.000000	0.000000	21.801729	2.176669	6.121662	14.361377	-10.264839	55.952453	46.109086	23.297612	1.875464	13.803256	15.071401	-5.576664	57.358269	37.900844	71.788670	2.897764	5.223557
4.440678	0.606964	-4.161272	89.446186	0.139342	0.629798	0.775569	11.513056	-0.197220	-0.505878	17.679055	0.308558	38.186943	-0.190646	0.000000	7.534279	1.651349	-3.801718	8.917490	0.155640	35.211355	2.312758	0.000000	0.212967	-0.021257	0.057125	0.395500	-0.028271	0.060695	0.349883	-0.051683	0.060695	0.243400	-0.051683	0.049984	0.197761	-0.043347	0.046414	0.121689	-0.032927	0.042844	1.521200	-0.240460	0.317711	0.000000	0.000000	22.063625	2.207864	6.758359	15.105675	-10.627652	57.040770	46.272464	23.966141	1.820807	12.957861	14.336360	-5.550791	56.885514	38.157580	69.742989	2.421439	4.990623
4.457627	0.664378	-4.215744	89.686263	0.139340	0.629565	0.775461	11.430484	-0.137259	-0.677968	17.593636	0.307067	38.238074	-0.307194	0.000000	7.747807	1.579844	-3.587559	9.210809	0.160759	35.358991	2.336829	0.000000	0.217904	-0.014416	-0.023284	0.404669	-0.019174	-0.024739	0.357994	-0.035052	-0.024739	0.249042	-0.035052	-0.020373	0.202345	-0.029398	-0.018918	0.124510	-0.022331	-0.017463	1.556463	-0.163082	-0.129497	0.000000	0.000000	22.296390	2.252513	7.187904	15.604285	-10.875530	57.468709	46.365055	25.136224	1.859031	12.183185	13.738634	-5.522424	56.537786	38.423502	68.129258	1.878592	4.694230
4.474576	0.718190	-4.246707	89.987221	0.139281	0.629360	0.775267	11.268806	-0.110992	-1.078063	17.440222	0.304389	38.284281	-0.180298	0.000000	7.913494	1.519007	-3.300102	9.454806	0.165017	35.487131	2.375886	0.000000	0.220279	-0.011763	-0.100342	0.409079	-0.015645	-0.106613	0.361896	-0.028602	-0.106613	0.251756	-0.028602	-0.087799	0.204551	-0.023988	-0.081528	0.125867	-0.018222	-0.075256	1.573428	-0.133070	-0.558071	0.000000	0.000000	22.479884	2.314363	7.391637	15.886772	-11.033778	57.460218	46.380372	26.548422	2.028363	11.412040	13.319626	-5.484832	56.382854	38.652910	66.963799	1.391945	4.389996
4.491525	0.759004	-4.266176	90.321237	0.139197	0.629162	0.775025	11.068761	-0.117078	-1.613177	17.251834	0.301101	38.322246	0.092596	0.000000	8.042977	1.479302	-2.955063	9.646597	0.168365	35.587758	2.393399	0.000000	0.221728	-0.014536	-0.162894	0.411772	-0.019333	-0.173075	0.364277	-0.035344	-0.173075	0.253413	-0.035344	-0.142532	0.205897	-0.029643	-0.132351	0.126696	-0.022517	-0.122170	1.583783	-0.164438	-0.905967	0.000000	0.000000	22.624102	2.429996	7.347224	15.886019	-11.060462	56.841980	46.349226	27.893589	2.213193	10.854017	13.175752	-5.448443	56.685354	38.824240	66.084686	0.996654	4.184872
4.508475	0.805097	-4.266344	90.684440	0.139038	0.628979	0.774734	10.832419	-0.134681	-2.239797	17.036860	0.297349	38.343979	0.466946	0.000000	8.124774	1.444419	-2.553262	9.779948	0.170692	35.666349	2.397737	0.000000	0.221383	-0.019508	-0.212987	0.411131	-0.025946	-0.226299	0.363711	-0.047432	-0.226299	0.253019	-0.047432	-0.186364	0.205577	-0.039781	-0.173052	0.126498	-0.030218	-0.159741	1.581319	-0.220679	-1.184572	0.000000	0.000000	22.735939	2.585470	7.085195	15.629051	-10.981216	55.752928	46.274940	29.026454	2.391568	10.479296	13.311792	-5.390017	57.455192	38.889058	65.468455	0.758798	4.056860
4.525424	0.864407	-4.241150	91.085710	0.138754	0.628825	0.774383	10.560658	-0.164505	-3.005965	16.799155	0.293201	38.366882	0.995944	0.000000	8.132794	1.410587	-2.053904	9.813669	0.171281	35.701154	2.364635	0.000000	0.218544	-0.024173	-0.259843	0.405858	-0.032149	-0.276083	0.359046	-0.058773	-0.276083	0.249774	-0.058773	-0.227362	0.202940	-0.049293	-0.211122	0.124876	-0.037443	-0.194882	1.561039	-0.273444	-1.445167	0.000000	0.000000	22.814975	2.725371	6.696409	15.162236	-10.796938	54.301705	46.110264	30.128169	2.685378	10.294500	13.632452	-5.298503	58.368961	38.875949	65.023832	0.760201	4.260496
4.542373	0.935239	-4.210755	91.459212	0.138427	0.628668	0.774052	10.316282	-0.180624	-3.715507	16.580722	0.289388	38.375429	1.488491	0.000000	8.122121	1.374123	-1.545186	9.815627	0.171315	35.739407	2.285516	0.000000	0.214925	-0.029502	-0.287211	0.399136	-0.039237	-0.305162	0.353100	-0.071731	-0.305162	0.245637	-0.071731	-0.251310	0.199579	-0.060160	-0.233359	0.122808	-0.045698	-0.215409	1.535185	-0.333730	-1.597384	0.000000	0.000000	22.899376	2.906345	6.114617	14.480510	-10.542917	52.562463	45.950117	30.797321	2.893614	10.260983	14.153507	-5.183232	59.511415	38.767731	64.820316	0.905366	4.532001
4.559322	1.009567	-4.163706	91.829762	0.138008	0.628560	0.773709	10.080561	-0.210374	-4.480876	16.368923	0.285692	38.398160	2.080608	0.000000	8.048101	1.345663	-0.997127	9.724124	0.169718	35.749715	2.179480	0.000000	0.209848	-0.035335	-0.295324	0.389709	-0.046995	-0.313782	0.344759	-0.085913	-0.313782	0.239835	-0.085913	-0.258409	0.194865	-0.072055	-0.239951	0.119907	-0.054734	-0.221493	1.498924	-0.399716	-1.642505	0.000000	0.000000	22.944885	2.993784	5.343850	13.589417	-10.227575	50.512076	45.766369	31.268427	3.170842	10.465535	14.864300	-5.035455	60.836463	38.552932	64.957336	1.239844	4.895999
4.576271	1.098204	-4.106222	92.166608	0.137569	0.628525	0.773397	9.874054	-0.218891	-5.181580	16.175216	0.282311	38.405837	2.638340	0.000000	7.925832	1.306451	-0.455647	9.557792	0.166815	35.735187	2.053761	0.000000	0.204161	-0.039371	-0.297515	0.379147	-0.052364	-0.316110	0.335416	-0.095727	-0.316110	0.233335	-0.095727	-0.260326	0.189584	-0.080286	-0.241731	0.116657	-0.060986	-0.223137	1.458300	-0.445376	-1.654692	0.000000	0.000000	22.919676	3.007858	4.561633	12.677477	-9.887957	48.634043	45.486965	31.490612	3.576802	10.710630	15.571074	-4.876262	61.806622	38.325233	65.043189	1.715872	5.542356
